<svg xmlns="http://www.w3.org/2000/svg" width="97.639" height="67.665" viewBox="0 0 97.639 67.665"><g transform="translate(1136.139 94.333) rotate(-180)"><path d="M31.056,17.889a10.054,10.054,0,0,1,16.467-2.137,9.637,9.637,0,0,1,1.422,2.137l23.82,47.639A10,10,0,0,1,63.82,80H16.18A10,10,0,0,1,7.236,65.528Z" transform="translate(1118.5 20.5) rotate(90)" fill="#2e2e2e"/><path d="M31.056,17.889a10,10,0,0,1,17.889,0l23.82,47.639A10,10,0,0,1,63.82,80H16.18A10,10,0,0,1,7.236,65.528Z" transform="translate(1148.5 20.5) rotate(90)" fill="#2e2e2e"/></g></svg>